Coordinates
version=1
nRows=60
nColumns=12
inDegrees=yes

Units are S.I. units (second, meters, Newtons, ...)
Angles are in degrees

endheader
time	SC_y	SC_z	SC_x	AC_y	AC_z	AC_x	GH_y	GH_z	GH_yy	EL_x	PS_y
       0.0              -32.92          29.31          22.54          50.07        -0.7402         -14.35         -54.53          38.54          2.442          139.8          143.1
   0.01346              -32.92           29.3          22.54          50.07        -0.7391         -14.35         -54.52          38.54          2.467          139.8          143.1
   0.02692              -32.92           29.3          22.54          50.07         -0.738         -14.34          -54.5          38.54          2.494          139.8          143.1
   0.04038              -32.91           29.3          22.54          50.07        -0.7368         -14.34         -54.49          38.54          2.522          139.8          143.1
   0.05384              -32.91           29.3          22.55          50.07        -0.7356         -14.33         -54.47          38.54          2.552          139.8          143.1
   0.06731              -32.91           29.3          22.55          50.07        -0.7342         -14.33         -54.45          38.54          2.584          139.8          143.1
   0.08077              -32.91           29.3          22.55          50.07        -0.7328         -14.32         -54.43          38.53          2.619          139.8          143.1
   0.09423              -32.91           29.3          22.55          50.07        -0.7313         -14.31         -54.41          38.53          2.655          139.8          143.1
    0.1077               -32.9          29.29          22.55          50.07        -0.7296         -14.31         -54.39          38.53          2.695          139.8          143.1
    0.1211               -32.9          29.29          22.56          50.07        -0.7279          -14.3         -54.37          38.53          2.737          139.8          143.1
    0.1346               -32.9          29.29          22.56          50.07         -0.726         -14.29         -54.35          38.53          2.782          139.8          143.1
    0.1481              -32.89          29.29          22.56          50.07         -0.724         -14.29         -54.32          38.53          2.831          139.7          143.1
    0.1615              -32.89          29.29          22.56          50.07        -0.7218         -14.28         -54.29          38.53          2.884          139.7          143.1
     0.175              -32.89          29.28          22.57          50.07        -0.7194         -14.27         -54.26          38.53           2.94          139.7          143.1
    0.1885              -32.88          29.28          22.57          50.07        -0.7168         -14.26         -54.23          38.52          3.002          139.7          143.1
    0.2019              -32.88          29.28          22.58          50.07        -0.7141         -14.25         -54.19          38.52          3.068          139.7          143.1
    0.2154              -32.87          29.27          22.58          50.07        -0.7111         -14.24         -54.15          38.52          3.141          139.7          143.1
    0.2288              -32.87          29.27          22.58          50.06        -0.7078         -14.22         -54.11          38.52           3.22          139.7          143.1
    0.2423              -32.86          29.27          22.59          50.06        -0.7042         -14.21         -54.06          38.52          3.306          139.7          143.1
    0.2558              -32.86          29.26          22.59          50.06        -0.7003         -14.19         -54.01          38.51            3.4          139.7          143.1
    0.2692              -32.85          29.26           22.6          50.06        -0.6959         -14.18         -53.96          38.51          3.503          139.7          143.1
    0.2827              -32.84          29.25          22.61          50.06        -0.6912         -14.16          -53.9          38.51          3.617          139.7          143.1
    0.2961              -32.84          29.25          22.61          50.06         -0.686         -14.14         -53.83          38.51          3.743          139.6          143.1
    0.3096              -32.83          29.24          22.62          50.06        -0.6801         -14.12         -53.75           38.5          3.883          139.6          143.1
    0.3231              -32.82          29.23          22.63          50.06        -0.6737         -14.09         -53.67           38.5          4.038          139.6          143.1
    0.3365              -32.81          29.23          22.64          50.06        -0.6665         -14.06         -53.58          38.49          4.211          139.6          143.1
      0.35              -32.79          29.22          22.65          50.05        -0.6584         -14.03         -53.47          38.49          4.404          139.6          143.1
    0.3634              -32.78          29.21          22.66          50.05        -0.6493          -14.0         -53.36          38.48          4.622          139.5          143.1
    0.3769              -32.76           29.2          22.68          50.05        -0.6391         -13.96         -53.22          38.48          4.869          139.5          143.2
    0.3904              -32.75          29.18          22.69          50.05        -0.6274         -13.91         -53.07          38.47          5.148          139.5          143.2
    0.4038              -32.72          29.17          22.71          50.04        -0.6141         -13.86          -52.9          38.46          5.467          139.4          143.2
    0.4173               -32.7          29.15          22.73          50.04        -0.5989          -13.8         -52.71          38.45          5.834          139.4          143.2
    0.4308              -32.67          29.13          22.75          50.04        -0.5812         -13.73         -52.48          38.44          6.257          139.3          143.2
    0.4442              -32.64          29.11          22.78          50.03        -0.5608         -13.65         -52.21          38.43          6.748          139.3          143.2
    0.4577              -32.61          29.08          22.81          50.03        -0.5368         -13.56         -51.91          38.42          7.323          139.2          143.3
    0.4711              -32.56          29.05          22.85          50.02        -0.5086         -13.45         -51.54           38.4          8.001          139.1          143.3
    0.4846              -32.51          29.02           22.9          50.01         -0.475         -13.32         -51.11          38.38          8.806          139.0          143.3
    0.4981              -32.45          28.97          22.95           50.0        -0.4348         -13.16         -50.59          38.36          9.771          138.9          143.4
    0.5115              -32.37          28.92          23.02          49.99        -0.3861         -12.97         -49.96          38.33          10.94          138.8          143.4
     0.525              -32.28          28.85           23.1          49.98        -0.3267         -12.74         -49.19          38.29          12.37          138.6          143.5
    0.5384              -32.17          28.77           23.2          49.96        -0.2533         -12.45         -48.25          38.25          14.13          138.4          143.5
    0.5519              -32.03          28.67          23.32          49.94        -0.1618          -12.1         -47.07          38.19          16.32          138.1          143.6
    0.5654              -31.85          28.55          23.48          49.92       -0.04658         -11.65         -45.58          38.12          19.09          137.8          143.7
    0.5788              -31.62          28.39          23.68          49.88        0.09993         -11.08         -43.69          38.03          22.61          137.4          143.9
    0.5923              -31.33          28.18          23.93          49.84         0.2875         -10.34         -41.27          37.92          27.11          136.9          144.1
    0.6057              -30.96          27.92          24.25          49.79         0.5281         -9.407         -38.16          37.78          32.88          136.2          144.3
    0.6192              -30.48          27.58          24.67          49.72         0.8355         -8.209          -34.2          37.59          40.26          135.3          144.6
    0.6327              -29.89          27.16          25.19          49.63          1.222         -6.703         -29.21          37.36          49.54          134.2          145.0
    0.6461              -29.16          26.64          25.83          49.52          1.693         -4.868         -23.13          37.08          60.84          132.9          145.5
    0.6596              -28.31          26.05          26.57           49.4          2.239          -2.74         -16.08          36.75          73.95          131.3          146.0
    0.6731               -27.4           25.4          27.37          49.27           2.83        -0.4364         -8.455          36.39          88.14          129.6          146.6
    0.6865              -26.48          24.75          28.17          49.13          3.421          1.867        -0.8256          36.04          102.3          127.9          147.2
       0.7              -25.64          24.15           28.9          49.01          3.967          3.995           6.22          35.71          115.4          126.4          147.7
    0.7134              -24.91          23.64          29.54           48.9          4.438           5.83           12.3          35.42          126.7          125.0          148.2
    0.7269              -24.31          23.22          30.06          48.82          4.825          7.337          17.29          35.19          136.0          123.9          148.6
    0.7404              -23.84          22.88          30.48          48.75          5.132          8.534          21.25          35.01          143.4          123.1          148.9
    0.7538              -23.47          22.62           30.8          48.69          5.373          9.472          24.36          34.86          149.2          122.4          149.1
    0.7673              -23.18          22.41          31.06          48.65           5.56           10.2          26.78          34.75          153.7          121.8          149.3
    0.7807              -22.95          22.25          31.26          48.62          5.707          10.77          28.67          34.66          157.2          121.4          149.5
    0.7942              -22.77          22.12          31.41          48.59          5.822          11.22          30.16          34.59          160.0          121.1          149.6
